<?xml version="1.0" standalone="no"?>
<!DOCTYPE svg PUBLIC "-//W3C//DTD SVG 20010904//EN"
 "http://www.w3.org/TR/2001/REC-SVG-20010904/DTD/svg10.dtd">
<svg version="1.0" xmlns="http://www.w3.org/2000/svg"
 width="1024.000000pt" height="1024.000000pt" viewBox="0 0 1024.000000 1024.000000"
 preserveAspectRatio="xMidYMid meet">

<g transform="translate(0.000000,1024.000000) scale(0.100000,-0.100000)"
fill="#000000" stroke="none">
<path d="M1220 7714 c-6 -21 -14 -84 -17 -139 -5 -98 -5 -101 21 -132 22 -27
26 -40 25 -94 0 -35 -4 -86 -9 -114 l-7 -50 -2 63 c-1 49 -7 71 -28 105 -18
28 -26 53 -24 76 2 31 0 33 -15 20 -67 -55 -249 -628 -284 -894 -11 -82 -18
-101 -76 -205 -71 -129 -112 -232 -148 -377 -47 -187 -50 -231 -51 -580 0
-296 -2 -334 -17 -349 -26 -26 -78 -10 -142 43 -48 39 -56 50 -56 80 0 27 -4
34 -17 31 -24 -4 -29 -37 -7 -52 15 -12 16 -18 5 -61 -11 -44 -10 -50 12 -84
13 -20 34 -53 46 -73 32 -54 114 -92 208 -96 l72 -4 5 -42 c3 -22 7 -86 10
-141 8 -143 70 -510 122 -720 25 -99 56 -245 70 -325 13 -80 31 -174 39 -210
8 -36 19 -101 24 -145 6 -44 15 -109 21 -145 6 -36 19 -132 30 -215 15 -111
26 -163 44 -200 14 -27 26 -56 26 -63 0 -17 80 -214 91 -227 5 -5 9 -14 9 -21
0 -7 32 -78 70 -159 39 -81 70 -150 70 -154 0 -5 9 -16 21 -27 12 -10 38 -53
59 -95 21 -41 45 -81 54 -88 9 -8 16 -20 16 -27 0 -22 124 -221 195 -312 36
-46 64 -86 63 -90 -1 -4 9 -25 23 -47 14 -22 29 -52 33 -68 3 -15 24 -46 46
-69 21 -23 37 -45 34 -49 -2 -5 5 -13 16 -19 11 -6 20 -16 20 -23 1 -7 21 -32
45 -57 25 -25 45 -49 45 -55 1 -5 14 -26 30 -45 17 -19 30 -42 30 -51 0 -10
20 -35 45 -56 25 -21 45 -44 45 -52 0 -7 10 -23 23 -35 12 -11 29 -36 38 -54
9 -18 19 -33 23 -33 18 2 20 0 6 -10 -12 -8 -9 -9 13 -5 l27 7 -14 -36 c-16
-37 -10 -51 30 -73 9 -5 15 -27 17 -60 1 -32 7 -52 14 -52 6 0 14 -14 18 -30
4 -17 11 -30 16 -30 5 0 9 -5 9 -11 0 -5 -4 -8 -9 -4 -5 3 -12 1 -16 -5 -4 -6
5 -10 21 -10 22 0 25 -2 14 -15 -9 -10 -9 -15 -1 -15 6 0 11 -8 11 -17 0 -16
-2 -16 -11 -3 -9 12 -9 11 -3 -5 13 -37 5 -169 -11 -181 -21 -16 -19 -26 5
-19 11 4 20 2 20 -4 0 -6 12 -17 27 -25 l28 -14 -39 1 c-27 1 -42 -5 -52 -18
-10 -13 -11 -21 -3 -26 6 -4 8 -16 4 -28 l-6 -21 2189 0 c1928 0 2191 2 2202
15 7 8 19 15 26 15 8 0 14 4 14 10 0 5 13 23 29 39 16 16 26 32 23 36 -3 3 9
11 26 17 18 7 35 20 38 30 5 16 23 23 47 19 5 -1 6 3 2 9 -3 5 1 10 10 10 9 0
13 4 10 10 -3 5 10 19 29 31 22 13 37 30 41 49 5 22 15 32 41 42 19 6 34 18
34 25 0 7 7 13 15 13 8 0 15 7 15 15 0 8 7 15 15 15 9 0 19 8 22 18 8 22 34
48 113 113 36 30 72 60 80 67 8 7 31 25 50 40 37 29 599 580 860 843 157 158
344 357 382 405 26 32 48 121 48 192 0 66 43 180 106 282 79 129 117 211 116
255 -1 22 5 90 13 150 7 61 14 120 14 133 1 12 2 32 2 45 1 12 -2 30 -6 40 -5
12 -2 17 10 17 14 0 15 3 6 14 -9 10 -7 17 6 27 11 9 14 10 9 2 -5 -9 -2 -11
7 -7 9 3 13 13 10 25 -3 11 0 19 6 19 7 0 10 4 6 9 -3 5 -1 12 5 16 6 4 7 12
3 18 -11 18 -11 137 0 137 5 0 4 7 -3 15 -8 10 -9 15 -2 15 6 0 9 7 6 15 -4 8
-2 15 2 15 5 0 9 30 10 67 0 38 6 88 11 113 6 25 7 47 3 50 -14 9 -4 77 14 95
9 9 16 25 16 34 0 10 7 37 15 60 10 31 11 41 2 41 -9 0 -8 3 1 9 7 4 12 12 11
17 -1 5 0 11 1 14 6 16 11 49 11 80 1 19 3 38 5 42 2 4 6 60 8 125 6 165 15
243 32 269 11 16 12 24 3 29 -8 6 -8 10 2 16 11 6 11 14 2 38 -8 22 -8 41 0
68 6 21 12 83 13 137 1 55 6 116 10 135 4 20 9 124 10 231 2 107 5 304 7 438
5 218 3 243 -11 252 -10 5 -12 10 -4 10 18 0 16 70 -2 70 -8 0 -17 -6 -19 -12
-4 -10 -8 -9 -16 2 -7 10 -7 17 0 21 15 9 6 53 -15 74 -12 13 -15 25 -11 44 4
14 9 42 11 61 2 19 5 50 8 67 2 18 0 35 -5 38 -12 8 -12 45 0 45 5 0 1 22 -10
49 -14 37 -15 51 -6 54 7 3 8 6 2 6 -6 1 -9 39 -9 97 2 81 5 99 22 117 14 14
18 27 13 36 -5 7 -7 36 -5 64 2 28 -1 56 -6 62 -5 6 -3 26 4 47 8 21 10 42 5
50 -5 7 -9 22 -9 33 0 11 -12 45 -26 75 -35 73 -141 416 -155 499 -16 100 -14
99 -68 48 -56 -53 -113 -72 -183 -63 l-47 7 14 -48 c35 -114 38 -258 31 -1568
-16 -2969 -20 -3237 -41 -3332 -31 -133 -130 -289 -265 -416 -174 -164 -311
-247 -487 -297 -173 -48 -289 -58 -913 -74 -742 -20 -2769 -40 -3195 -32 -572
11 -1198 40 -1311 60 -151 26 -403 135 -581 251 -120 78 -260 220 -301 305
-57 117 -57 109 -57 1055 0 984 23 4132 31 4156 3 13 -11 18 -78 28 -112 17
-187 48 -216 91 -29 43 -51 119 -59 200 -8 88 -18 105 -33 54z m17 -666 c-3
-8 -6 -5 -6 6 -1 11 2 17 5 13 3 -3 4 -12 1 -19z m7923 -483 c0 -8 -4 -15 -10
-15 -5 0 -10 7 -10 15 0 8 5 15 10 15 6 0 10 -7 10 -15z m-6853 -5921 c3 -8 0
-21 -7 -27 -10 -10 -12 -8 -7 6 4 9 2 17 -3 17 -6 0 -10 5 -10 10 0 16 20 12
27 -6z m4713 -374 c0 -5 -5 -10 -11 -10 -5 0 -7 5 -4 10 3 6 8 10 11 10 2 0 4
-4 4 -10z"/>
<path d="M6425 6824 c-80 -23 -256 -29 -375 -13 -58 7 -109 14 -114 14 -10 0
-8 -1228 3 -2310 7 -660 6 -659 50 -692 12 -9 83 -12 256 -13 202 0 244 3 263
16 l22 15 0 497 c-1 572 -16 1891 -26 2255 -5 169 -11 247 -18 246 -6 -1 -33
-8 -61 -15z"/>
<path d="M3880 6820 c-206 -3 -376 -7 -377 -8 -2 -1 -3 -8 -3 -15 0 -76 -299
-790 -542 -1297 -114 -236 -474 -907 -676 -1260 -187 -325 -222 -388 -222
-399 0 -19 45 -23 342 -24 338 -2 328 -5 408 95 70 88 329 550 506 904 214
428 327 690 476 1099 22 61 45 122 50 138 15 39 36 33 48 -14 26 -95 303 -768
460 -1119 51 -113 123 -277 160 -365 185 -438 313 -710 346 -731 17 -12 79
-14 335 -12 281 3 314 5 317 19 5 28 -108 298 -288 684 -230 495 -398 865
-475 1048 -34 84 -91 217 -125 297 -102 237 -307 784 -336 898 -10 39 -21 71
-24 70 -3 -2 -174 -5 -380 -8z"/>
<path d="M7705 6033 c-211 -28 -385 -175 -460 -390 -63 -177 -9 -401 129 -538
135 -135 290 -180 478 -141 105 23 174 62 259 146 125 124 175 255 167 435 -4
91 -8 108 -42 179 -28 58 -57 97 -109 150 -125 125 -269 179 -422 159z"/>
<path d="M9215 4451 c-3 -6 6 -30 20 -53 15 -24 34 -55 43 -70 32 -53 31 -28
-2 49 -32 75 -48 95 -61 74z"/>
<path d="M2703 2810 c-35 -15 -46 -45 -29 -79 42 -81 255 -235 411 -296 143
-57 190 -65 405 -76 256 -13 3205 -3 3364 12 125 11 232 43 318 95 109 66 246
242 221 283 -5 9 -24 26 -42 38 l-32 22 -2252 -1 c-1239 0 -2272 2 -2297 5
-25 4 -55 2 -67 -3z"/>
<path d="M2190 751 c0 -6 4 -13 10 -16 6 -3 7 1 4 9 -7 18 -14 21 -14 7z"/>
</g>
</svg>
